<svg xmlns="http://www.w3.org/2000/svg" viewBox="0 0 800 450" width="100%" height="100%">
  <defs>
    <linearGradient id="ladSky" x1="0%" y1="0%" x2="0%" y2="100%">
      <stop offset="0%" stop-color="#1e3a8a"/>
      <stop offset="60%" stop-color="#0284c7"/>
      <stop offset="100%" stop-color="#7dd3fc"/>
    </linearGradient>
  </defs>
  <rect width="800" height="450" fill="url(#ladSky)"/>
  <circle cx="650" cy="110" r="45" fill="#fef08a" opacity="0.95"/>
  <polygon points="20,270 200,90 380,270" fill="#78350f"/>
  <polygon points="200,90 230,135 190,150 170,125 200,90" fill="#f8fafc"/>
  <polygon points="240,270 440,60 640,270" fill="#92400e"/>
  <polygon points="440,60 480,120 445,135 410,115 390,140 440,60" fill="#f8fafc"/>
  <polygon points="500,270 660,110 820,270" fill="#78350f"/>
  <polygon points="660,110 690,145 655,155 640,135 660,110" fill="#f8fafc"/>
  <!-- Pangong Lake -->
  <rect y="270" width="800" height="180" fill="#0369a1"/>
  <ellipse cx="400" cy="310" rx="300" ry="20" fill="#0284c7"/>
  <!-- Tibetan Prayer Flags -->
  <path d="M50,150 Q200,210 350,170 T650,190" fill="none" stroke="#f8fafc" stroke-width="2"/>
  <polygon points="120,175 140,183 130,205 115,200" fill="#3b82f6"/>
  <polygon points="150,185 170,190 160,212 145,207" fill="#ef4444"/>
  <polygon points="180,192 200,195 190,218 175,214" fill="#eab308"/>
  <polygon points="210,195 230,194 222,218 206,218" fill="#22c55e"/>
  <rect x="24" y="24" width="125" height="34" rx="8" fill="#0f172a" fill-opacity="0.6"/>
  <text x="36" y="47" font-family="system-ui, -apple-system, sans-serif" font-size="14" font-weight="700" fill="#ffffff" letter-spacing="1">LADAKH</text>
  <text x="110" y="47" font-size="14">🏍️</text>
</svg>
